<svg width="35" height="35" viewBox="0 0 35 35" fill="none" xmlns="http://www.w3.org/2000/svg">
<path d="M4.375 12.375C4.375 8.60376 4.375 6.71815 5.54657 5.54657C6.71815 4.375 8.60376 4.375 12.375 4.375H22.625C26.3962 4.375 28.2819 4.375 29.4534 5.54657C30.625 6.71815 30.625 8.60376 30.625 12.375V22.625C30.625 26.3962 30.625 28.2819 29.4534 29.4534C28.2819 30.625 26.3962 30.625 22.625 30.625H12.375C8.60376 30.625 6.71815 30.625 5.54657 29.4534C4.375 28.2819 4.375 26.3962 4.375 22.625V12.375Z" stroke="#222222" stroke-width="3"/>
<path d="M17.5 11.666L17.5 23.3327" stroke="#222222" stroke-width="3" stroke-linecap="round" stroke-linejoin="round"/>
<path d="M23.3335 17.5L11.6668 17.5" stroke="#222222" stroke-width="3" stroke-linecap="round" stroke-linejoin="round"/>
</svg>
