<svg width="35" height="35" viewBox="0 0 35 35" fill="none" xmlns="http://www.w3.org/2000/svg">
<path d="M13.7833 28.948L14.2576 30.371L14.2576 30.371L13.7833 28.948ZM21.5333 26.3646L22.0076 27.7876L22.0076 27.7876L21.5333 26.3646ZM28.8739 10.5019L29.9346 11.5625L28.8739 10.5019ZM22.168 17.2078L21.1074 16.1471L22.168 17.2078ZM12.8323 17.2077L11.7716 18.2684L12.8323 17.2077ZM6.12639 10.5019L5.06573 11.5625L6.12639 10.5019ZM6.8335 7.33398H28.1668V4.33398H6.8335V7.33398ZM7.3335 9.79477V6.83398H4.3335V9.79477H7.3335ZM13.8929 16.1471L7.18705 9.44122L5.06573 11.5625L11.7716 18.2684L13.8929 16.1471ZM11.6252 17.9149V28.4736H14.6252V17.9149H11.6252ZM11.6252 28.4736C11.6252 29.8387 12.9626 30.8027 14.2576 30.371L13.3089 27.5249C13.9564 27.3091 14.6252 27.791 14.6252 28.4736H11.6252ZM14.2576 30.371L22.0076 27.7876L21.0589 24.9416L13.3089 27.5249L14.2576 30.371ZM22.0076 27.7876C22.8243 27.5154 23.3752 26.7511 23.3752 25.8903H20.3752C20.3752 25.4598 20.6506 25.0777 21.0589 24.9416L22.0076 27.7876ZM23.3752 25.8903V17.9149H20.3752V25.8903H23.3752ZM27.8133 9.44122L21.1074 16.1471L23.2287 18.2684L29.9346 11.5625L27.8133 9.44122ZM27.6668 6.83398V9.79477H30.6668V6.83398H27.6668ZM29.9346 11.5625C30.4034 11.0937 30.6668 10.4578 30.6668 9.79477H27.6668C27.6668 9.66216 27.7195 9.53499 27.8133 9.44122L29.9346 11.5625ZM23.3752 17.9149C23.3752 18.0475 23.3225 18.1747 23.2287 18.2684L21.1074 16.1471C20.6385 16.616 20.3752 17.2518 20.3752 17.9149H23.3752ZM11.7716 18.2684C11.6778 18.1746 11.6252 18.0475 11.6252 17.9149H14.6252C14.6252 17.2518 14.3618 16.6159 13.8929 16.1471L11.7716 18.2684ZM4.3335 9.79477C4.3335 10.4578 4.59689 11.0937 5.06573 11.5625L7.18705 9.44122C7.28082 9.53499 7.3335 9.66216 7.3335 9.79477H4.3335ZM28.1668 7.33398C27.8907 7.33398 27.6668 7.11013 27.6668 6.83398H30.6668C30.6668 5.45327 29.5475 4.33398 28.1668 4.33398V7.33398ZM6.8335 4.33398C5.45278 4.33398 4.3335 5.45327 4.3335 6.83398H7.3335C7.3335 7.11013 7.10964 7.33398 6.8335 7.33398V4.33398Z" fill="#33363F"/>
</svg>
