<svg width="35" height="35" viewBox="0 0 35 35" fill="none" xmlns="http://www.w3.org/2000/svg">
<path d="M33.086 13.4635L32.9055 13.3213L31.1227 13.2612L32.8126 11.5549C33.0974 11.2459 33.2529 10.8393 33.2467 10.4191C33.2406 9.99883 33.0735 9.59695 32.7797 9.29633C32.4787 8.99754 32.0769 8.822 31.6532 8.80414C31.4425 8.79593 31.2324 8.831 31.0358 8.90719C30.8392 8.98338 30.6603 9.09907 30.5102 9.24711L28.804 10.937L28.7493 9.34555V9.11586L28.6235 8.96821C28.3926 8.65112 28.0666 8.41597 27.6928 8.29696C27.3191 8.17795 26.9171 8.18128 26.5454 8.30649C26.4465 8.34359 26.3527 8.39321 26.2665 8.45414C26.2653 8.15332 26.1957 7.8567 26.0631 7.58669C25.9305 7.31669 25.7382 7.08035 25.5008 6.89555L25.3204 6.75336L23.5157 6.69868L25.2274 4.99243C25.5073 4.67857 25.6559 4.26924 25.6427 3.84894C25.6295 3.42864 25.4554 3.02947 25.1563 2.73383C24.8661 2.43637 24.477 2.25545 24.0626 2.22524C23.8517 2.21502 23.641 2.24917 23.4441 2.32547C23.2472 2.40177 23.0685 2.51853 22.9196 2.66821L21.1915 4.37446L21.1422 2.79399V2.55883L21.0165 2.40571C20.782 2.0853 20.451 1.8486 20.0719 1.73047C19.6929 1.61233 19.286 1.61898 18.911 1.74946C18.6165 1.86654 18.3655 2.07179 18.1922 2.3371C18.0189 2.60241 17.9319 2.9148 17.943 3.23149L18.0743 7.27836C17.2797 6.49387 16.2845 5.94328 15.1977 5.68696C13.4368 5.36977 11.5665 6.27211 9.31881 8.51977C5.06959 12.769 -1.09369 22.8534 1.96881 25.9213C2.29282 26.2157 2.67299 26.4416 3.08649 26.5854C3.49999 26.7292 3.93829 26.7879 4.37506 26.7581C6.15241 26.7581 8.33444 25.9268 10.1446 25.0518C9.05084 27.5182 8.00631 30.8815 9.59772 32.4838C9.92013 32.774 10.2969 32.9973 10.7061 33.1409C11.1154 33.2845 11.5491 33.3456 11.9821 33.3206C13.7649 33.3206 15.9633 32.4784 17.779 31.5979C21.1615 29.942 24.265 27.7685 26.9774 25.1557C31.1391 20.994 30.1055 18.5276 28.2243 16.4057L32.2712 16.537H32.3204C32.6286 16.5373 32.9298 16.4452 33.1852 16.2727C33.4406 16.1001 33.6384 15.855 33.7532 15.569C33.8834 15.193 33.8888 14.785 33.7686 14.4056C33.6484 14.0263 33.409 13.6959 33.086 13.4635ZM25.5555 9.69555C25.5528 9.72831 25.5528 9.76123 25.5555 9.79399L25.7032 13.8354C24.6477 12.9002 23.5157 12.1948 22.0993 12.1948C21.775 11.3147 21.268 10.5133 20.6118 9.84321L24.6587 9.97446H24.7079C25.0116 9.96609 25.3062 9.86915 25.5555 9.69555ZM19.3102 2.76664C19.4447 2.73241 19.5863 2.7374 19.7181 2.781C19.8498 2.82461 19.9664 2.90502 20.054 3.01274L20.136 5.55024C20.1387 5.66901 20.1765 5.78432 20.2446 5.88165C20.3127 5.97897 20.4081 6.05394 20.5188 6.09711C20.6282 6.13827 20.7471 6.14727 20.8614 6.12304C20.9758 6.09882 21.0808 6.04238 21.1641 5.96039L23.6743 3.44477C23.765 3.36119 23.8846 3.31609 24.0079 3.31899C24.081 3.32071 24.1531 3.33708 24.2197 3.36714C24.2864 3.3972 24.3464 3.44033 24.3962 3.49399C24.4978 3.58354 24.5601 3.70962 24.5693 3.8448C24.5785 3.97998 24.534 4.11334 24.4454 4.21586L21.9352 6.72602C21.8518 6.80883 21.7945 6.91425 21.7704 7.02927C21.7462 7.14429 21.7563 7.26386 21.7993 7.37322C21.8424 7.48258 21.9165 7.57693 22.0126 7.64463C22.1086 7.71233 22.2224 7.7504 22.3399 7.75414L24.8774 7.83618C24.9851 7.92374 25.0655 8.0403 25.1091 8.17209C25.1527 8.30388 25.1577 8.44539 25.1235 8.57993C25.0889 8.66366 25.0294 8.73476 24.9532 8.78365C24.8769 8.83255 24.7875 8.85688 24.6969 8.85336L19.7751 8.69477C19.6753 8.68591 19.5794 8.65205 19.4962 8.59633C19.4681 8.57555 19.4424 8.55171 19.4196 8.52524C19.3967 8.50412 19.3765 8.48024 19.3594 8.45414C19.3102 8.37423 19.2785 8.28475 19.2665 8.19164L19.1079 3.23149C19.0892 3.14259 19.0986 3.05007 19.1349 2.96677C19.1711 2.88347 19.2324 2.81353 19.3102 2.76664ZM8.91959 24.3901L6.60084 22.0713C6.55 22.0201 6.48952 21.9794 6.42288 21.9516C6.35623 21.9239 6.28476 21.9096 6.21256 21.9096C6.14037 21.9096 6.06889 21.9239 6.00225 21.9516C5.9356 21.9794 5.87512 22.0201 5.82428 22.0713C5.72242 22.1738 5.66525 22.3124 5.66525 22.4569C5.66525 22.6014 5.72242 22.74 5.82428 22.8424L7.84225 24.8604C5.35944 25.8174 3.50553 25.9541 2.72897 25.1666C1.78834 24.1932 2.18756 21.601 3.82819 18.2213C4.27116 17.3026 4.80162 16.3565 5.37584 15.4159L8.54225 18.5932C8.5929 18.6449 8.6533 18.686 8.71995 18.7142C8.7866 18.7423 8.85817 18.757 8.93053 18.7573C9.06905 18.751 9.20002 18.6924 9.29694 18.5932C9.39879 18.4907 9.45596 18.3521 9.45596 18.2077C9.45596 18.0632 9.39879 17.9246 9.29694 17.8221L5.961 14.4916C7.16167 12.6273 8.54478 10.8869 10.0899 9.29633C10.4762 8.91181 10.8814 8.54677 11.304 8.20258L15.1321 12.0307C15.1827 12.0824 15.2431 12.1235 15.3098 12.1517C15.3764 12.1798 15.448 12.1945 15.5204 12.1948C15.5927 12.1945 15.6643 12.1798 15.731 12.1517C15.7976 12.1235 15.858 12.0824 15.9087 12.0307C16.0105 11.9282 16.0677 11.7896 16.0677 11.6452C16.0677 11.5007 16.0105 11.3621 15.9087 11.2596L12.2172 7.56821C12.8964 7.08061 13.7011 6.79784 14.536 6.75336C14.6993 6.75139 14.8624 6.76605 15.0227 6.79711C16.3133 7.02133 17.429 8.14243 18.6157 9.32368C21.0821 11.7956 22.8649 13.5784 18.6157 17.8331C18.129 18.3198 17.5766 18.812 16.9751 19.3041L13.1852 15.5143C13.1344 15.463 13.0739 15.4224 13.0073 15.3946C12.9406 15.3668 12.8691 15.3525 12.7969 15.3525C12.7247 15.3525 12.6533 15.3668 12.5866 15.3946C12.52 15.4224 12.4595 15.463 12.4087 15.5143C12.3068 15.6168 12.2496 15.7554 12.2496 15.8998C12.2496 16.0443 12.3068 16.1829 12.4087 16.2854L16.1219 19.9987C14.1158 21.5707 11.9534 22.9322 9.66881 24.062C9.42272 24.1713 9.18209 24.2862 8.94147 24.3901H8.91959ZM26.1844 24.3627C25.6977 24.8495 25.1454 25.3416 24.5438 25.8338L20.7813 22.044C20.7323 21.9867 20.672 21.9402 20.6041 21.9074C20.5363 21.8746 20.4624 21.8561 20.387 21.8532C20.3117 21.8503 20.2366 21.863 20.1664 21.8905C20.0963 21.918 20.0325 21.9597 19.9792 22.013C19.9259 22.0663 19.8842 22.13 19.8567 22.2002C19.8293 22.2704 19.8166 22.3455 19.8195 22.4208C19.8224 22.4961 19.8408 22.57 19.8736 22.6379C19.9065 22.7057 19.953 22.7661 20.0102 22.8151L23.718 26.5284C21.7189 28.1112 19.5619 29.4838 17.2813 30.6245C17.0297 30.7448 16.7891 30.8596 16.5485 30.9635L14.2188 28.6174C14.1163 28.5156 13.9777 28.4584 13.8333 28.4584C13.6888 28.4584 13.5502 28.5156 13.4477 28.6174C13.3459 28.7199 13.2887 28.8585 13.2887 29.003C13.2887 29.1474 13.3459 29.2861 13.4477 29.3885L15.4657 31.4065C12.9829 32.3635 11.129 32.5002 10.3524 31.7127C9.34069 30.701 9.83834 27.9338 11.6813 24.3081C11.6929 24.2797 11.702 24.2504 11.7087 24.2206C12.4469 23.8104 13.1907 23.3674 13.8962 22.8971L16.1547 25.1557C16.2557 25.2587 16.3933 25.3177 16.5376 25.3198C16.6533 25.332 16.7699 25.3069 16.8704 25.2483C16.971 25.1897 17.0502 25.1005 17.0965 24.9938C17.1429 24.887 17.154 24.7683 17.1282 24.6548C17.1024 24.5413 17.0411 24.439 16.9532 24.3627L14.8641 22.2737C16.4724 21.1829 17.9804 19.9512 19.3704 18.5932C19.9389 18.0362 20.4619 17.4345 20.9344 16.794L22.7282 18.5823C22.8292 18.6853 22.9667 18.7443 23.111 18.7463C23.2258 18.7558 23.3406 18.7288 23.4392 18.6692C23.5377 18.6096 23.6149 18.5204 23.6598 18.4143C23.7046 18.3082 23.7149 18.1907 23.689 18.0785C23.6631 17.9662 23.6025 17.865 23.5157 17.7893L21.5524 15.826C22.0089 15.0579 22.2525 14.182 22.2579 13.2885C23.7071 13.3596 24.9266 14.5737 26.2063 15.8534C28.6782 18.3252 30.4555 20.1135 26.2063 24.3627H26.1844ZM32.736 15.1424C32.7018 15.2276 32.6416 15.2998 32.5641 15.3488C32.4866 15.3979 32.3956 15.4213 32.304 15.4159L27.3821 15.2573C27.284 15.2484 27.1899 15.2145 27.1087 15.1588C27.0772 15.1361 27.0479 15.1105 27.0212 15.0823C26.9965 15.0613 26.9745 15.0374 26.9555 15.0112V14.9838C26.9039 14.9051 26.872 14.815 26.8626 14.7213L26.6985 9.76118C26.6946 9.66985 26.7194 9.5796 26.7694 9.50309C26.8194 9.42658 26.8922 9.36767 26.9774 9.33461C27.1111 9.30013 27.2519 9.30502 27.3829 9.34867C27.5139 9.39233 27.6294 9.47291 27.7157 9.58071L27.7977 12.1127C27.8011 12.2313 27.8392 12.3463 27.9072 12.4435C27.9752 12.5407 28.0703 12.6158 28.1805 12.6596C28.289 12.7043 28.4083 12.7156 28.5232 12.6923C28.6381 12.6689 28.7435 12.6118 28.8258 12.5284L31.2813 10.0073C31.3248 9.96377 31.377 9.93006 31.4345 9.90836C31.4921 9.88667 31.5536 9.87751 31.6149 9.88149C31.7638 9.88706 31.9048 9.94973 32.0087 10.0565C32.1034 10.1502 32.1606 10.2752 32.1697 10.4081C32.1788 10.541 32.139 10.6727 32.0579 10.7784L29.5313 13.2885C29.4479 13.3713 29.3906 13.4768 29.3665 13.5918C29.3423 13.7068 29.3524 13.8264 29.3954 13.9357C29.4385 14.0451 29.5126 14.1394 29.6087 14.2071C29.7047 14.2748 29.8185 14.3129 29.936 14.3166L32.4735 14.3987C32.5831 14.4851 32.6659 14.6009 32.7124 14.7326C32.7589 14.8642 32.767 15.0063 32.736 15.1424Z" fill="#FF5C39"/>
</svg>
