<svg width="35" height="35" viewBox="0 0 35 35" fill="none" xmlns="http://www.w3.org/2000/svg">
<path d="M24.5055 2.73438C23.1946 2.73285 21.8972 2.99882 20.6926 3.51599C19.4881 4.03317 18.4017 4.79069 17.5 5.74219C16.5983 4.79069 15.5119 4.03317 14.3074 3.51599C13.1028 2.99882 11.8054 2.73285 10.4945 2.73438C7.85719 2.73742 5.32873 3.78645 3.46384 5.65134C1.59895 7.51623 0.549922 10.0447 0.546882 12.682C0.545182 14.1304 0.83475 15.5643 1.39837 16.8984C3.76241 22.492 7.94774 27.1224 13.2749 30.0377L17.2381 32.1989C17.3184 32.2428 17.4085 32.2657 17.5 32.2657C17.5915 32.2657 17.6816 32.2428 17.762 32.1989L21.7252 30.0377C27.0521 27.1222 31.2374 22.4919 33.6016 16.8984C34.1653 15.5643 34.4548 14.1304 34.4531 12.682C34.4501 10.0447 33.4011 7.51623 31.5362 5.65134C29.6713 3.78645 27.1428 2.73742 24.5055 2.73438ZM11.3909 19.4589C10.736 18.9376 10.2075 18.2749 9.8449 17.5205C9.48229 16.7662 9.29494 15.9395 9.29688 15.1025C9.2954 13.8718 9.54533 12.6538 10.0313 11.5232C10.245 11.0249 10.6002 10.6001 11.0529 10.3017C11.5056 10.0032 12.0359 9.84414 12.5781 9.84414C13.1204 9.84414 13.6507 10.0032 14.1034 10.3017C14.5561 10.6001 14.9113 11.0249 15.1249 11.5232C15.6109 12.6538 15.8609 13.8718 15.8594 15.1025C15.8613 15.9397 15.6739 16.7664 15.3112 17.5209C14.9485 18.2754 14.4198 18.9381 13.7649 19.4595C13.5648 19.619 13.4034 19.8217 13.2926 20.0524C13.1818 20.283 13.1245 20.5358 13.125 20.7916V28.6907C12.7548 28.472 12.3895 28.2499 12.0313 28.0153V20.7916C12.0317 20.5356 11.9744 20.2828 11.8635 20.052C11.7526 19.8213 11.5911 19.6185 11.3909 19.4589ZM21.3281 29.0046V20.7813C21.3282 20.657 21.286 20.5365 21.2084 20.4395L19.7039 18.5593C19.34 18.103 19.1414 17.5368 19.1406 16.9531V16.4063H24.6094V16.9531C24.6086 17.5368 24.41 18.103 24.0461 18.5593L22.5416 20.4395C22.4641 20.5365 22.4218 20.657 22.4219 20.7813V28.3609C22.0626 28.5835 21.6989 28.7995 21.3281 29.0046ZM32.5938 16.4735C30.6865 20.981 27.5383 24.8542 23.5156 27.6424V20.9732L24.8998 19.2429C25.4191 18.5926 25.7023 17.7853 25.7031 16.9531V9.29688H24.6094V15.3125H23.5156V9.29688H22.4219V15.3125H21.3281V9.29688H20.2344V15.3125H19.1406V9.29688H18.0469V16.9531C18.0477 17.7853 18.3309 18.5926 18.8502 19.2429L20.2344 20.9732V29.6045L17.5 31.0959L14.2188 29.3065V20.7916C14.2184 20.6998 14.2389 20.6091 14.2787 20.5263C14.3185 20.4435 14.3765 20.3708 14.4484 20.3137C15.2317 19.69 15.8639 18.8974 16.2976 17.9949C16.7313 17.0925 16.9554 16.1037 16.9531 15.1025C16.9558 13.7238 16.6766 12.3592 16.1328 11.0923C15.835 10.3971 15.3397 9.80455 14.7083 9.38817C14.0769 8.97178 13.3372 8.74983 12.5809 8.74983C11.8245 8.74983 11.0848 8.97178 10.4535 9.38817C9.82208 9.80455 9.32676 10.3971 9.02891 11.0923C8.48322 12.3588 8.2022 13.7235 8.20313 15.1025C8.20076 16.1037 8.42483 17.0924 8.85857 17.9947C9.29231 18.8971 9.9245 19.6896 10.7078 20.3131C10.7797 20.3704 10.8377 20.4432 10.8775 20.5261C10.9172 20.6089 10.9378 20.6997 10.9375 20.7916V27.2563C7.17208 24.4985 4.22394 20.7723 2.40626 16.4735C1.89958 15.2738 1.63922 13.9844 1.64063 12.682C1.64338 10.3347 2.57709 8.08425 4.23692 6.42442C5.89675 4.76458 8.14718 3.83088 10.4945 3.82813C11.7515 3.82657 12.9933 4.10216 14.1315 4.63528C15.2698 5.1684 16.2765 5.94593 17.08 6.91251C17.133 6.9714 17.1978 7.01849 17.2701 7.05073C17.3425 7.08296 17.4208 7.09962 17.5 7.09962C17.5792 7.09962 17.6575 7.08296 17.7299 7.05073C17.8023 7.01849 17.867 6.9714 17.92 6.91251C18.7235 5.94593 19.7302 5.1684 20.8685 4.63528C22.0067 4.10216 23.2486 3.82657 24.5055 3.82813C26.8528 3.83088 29.1033 4.76458 30.7631 6.42442C32.4229 8.08425 33.3566 10.3347 33.3594 12.682C33.3608 13.9844 33.1004 15.2738 32.5938 16.4735Z" fill="#FF5C39"/>
</svg>
