<svg width="170" height="202" viewBox="0 0 170 202" fill="none" xmlns="http://www.w3.org/2000/svg">
<path d="M151.333 58.6667H122C119.054 58.6667 116.667 56.2789 116.667 53.3333V24C116.667 19.5817 113.085 16 108.667 16C104.248 16 100.667 19.5817 100.667 24V53.3333C100.667 56.2789 98.2789 58.6667 95.3333 58.6667H66C61.5817 58.6667 58 62.2484 58 66.6667C58 71.0849 61.5817 74.6667 66 74.6667H95.3333C98.2789 74.6667 100.667 77.0545 100.667 80V109.333C100.667 113.752 104.248 117.333 108.667 117.333C113.085 117.333 116.667 113.752 116.667 109.333V80C116.667 77.0545 119.054 74.6667 122 74.6667H151.333C155.752 74.6667 159.333 71.0849 159.333 66.6667C159.333 62.2484 155.752 58.6667 151.333 58.6667Z" fill="#FF8C82"/>
<g opacity="0.6">
<path d="M70.8958 124.042H51.875C49.965 124.042 48.4167 122.493 48.4167 120.583V101.563C48.4167 98.6975 46.0941 96.375 43.2292 96.375C40.3642 96.375 38.0417 98.6975 38.0417 101.563V120.583C38.0417 122.493 36.4933 124.042 34.5833 124.042H15.5625C12.6975 124.042 10.375 126.364 10.375 129.229C10.375 132.094 12.6975 134.417 15.5625 134.417H34.5833C36.4933 134.417 38.0417 135.965 38.0417 137.875V156.896C38.0417 159.761 40.3642 162.083 43.2292 162.083C46.0941 162.083 48.4167 159.761 48.4167 156.896V137.875C48.4167 135.965 49.965 134.417 51.875 134.417H70.8958C73.7608 134.417 76.0833 132.094 76.0833 129.229C76.0833 126.364 73.7608 124.042 70.8958 124.042Z" fill="#FF8C82"/>
</g>
<rect x="38.3647" y="40" width="13" height="13" transform="rotate(15 38.3647 40)" fill="#FF8C82"/>
<rect x="64.7168" y="183.563" width="13" height="13" transform="rotate(-41.2032 64.7168 183.563)" fill="#FF8C82"/>
<rect opacity="0.6" x="20.9922" y="35.1223" width="7.69709" height="7.69709" transform="rotate(15 20.9922 35.1223)" fill="#FF8C82"/>
<rect opacity="0.6" x="51" y="195.287" width="7.69709" height="7.69709" transform="rotate(-41.2032 51 195.287)" fill="#FF8C82"/>
</svg>
