<svg width="247" height="119" viewBox="0 0 247 119" fill="none" xmlns="http://www.w3.org/2000/svg">
<path d="M238 26.7718L217.283 11.3716C209.394 5.50644 198.386 6.30256 191.388 13.2445L190.784 13.8439C183.225 21.3428 171.009 21.2233 163.638 13.5784V13.5784C157.093 6.78966 146.551 5.82921 138.855 11.3204L129.766 17.8052C121.361 23.8016 109.87 22.8562 102.594 15.5696V15.5696C95.1206 8.0865 83.2441 7.31696 74.8311 13.7708L71.4545 16.3611C61.8847 23.7023 48.5388 23.5046 39.2307 15.8836L38.8626 15.5823C29.4626 7.88604 16.0174 7.57821 6.23503 14.8353L-11.7743 28.1957" stroke="#FEC5B9" stroke-opacity="0.5" stroke-width="4" stroke-miterlimit="1.41421" stroke-linecap="round"/>
<path d="M238 72.5447L217.283 57.1444C209.394 51.2793 198.386 52.0754 191.388 59.0173L190.784 59.6167C183.225 67.1156 171.009 66.9961 163.638 59.3512V59.3512C157.093 52.5625 146.551 51.602 138.855 57.0932L129.766 63.5781C121.361 69.5744 109.87 68.629 102.594 61.3424V61.3424C95.1206 53.8593 83.2441 53.0898 74.8311 59.5436L71.4545 62.1339C61.8847 69.4752 48.5388 69.2774 39.2307 61.6565L38.8626 61.3551C29.4626 53.6589 16.0174 53.351 6.23503 60.6081L-11.7743 73.9685" stroke="#FEC5B9" stroke-opacity="0.5" stroke-width="4" stroke-miterlimit="1.41421" stroke-linecap="round"/>
<path d="M245 114.772L224.283 99.3716C216.394 93.5064 205.386 94.3026 198.388 101.244L197.784 101.844C190.225 109.343 178.009 109.223 170.638 101.578V101.578C164.093 94.7897 153.551 93.8292 145.855 99.3204L136.766 105.805C128.361 111.802 116.87 110.856 109.594 103.57V103.57C102.121 96.0865 90.2441 95.317 81.8311 101.771L78.4545 104.361C68.8847 111.702 55.5388 111.505 46.2307 103.884L45.8626 103.582C36.4626 95.886 23.0174 95.5782 13.235 102.835L-4.77431 116.196" stroke="#FEC5B9" stroke-opacity="0.5" stroke-width="4" stroke-miterlimit="1.41421" stroke-linecap="round"/>
</svg>
