<svg width="227" height="118" viewBox="0 0 227 118" fill="none" xmlns="http://www.w3.org/2000/svg">
<path d="M252 26.7718L231.284 11.3716C223.394 5.50644 212.386 6.30256 205.389 13.2445L204.784 13.8439C197.225 21.3428 185.009 21.2233 177.638 13.5784V13.5784C171.093 6.78966 160.552 5.82921 152.855 11.3204L143.766 17.8052C135.361 23.8016 123.87 22.8562 116.594 15.5696V15.5696C109.121 8.0865 97.2443 7.31696 88.8314 13.7708L85.4547 16.3611C75.885 23.7023 62.539 23.5046 53.2309 15.8836L52.8629 15.5823C43.4628 7.88604 30.0176 7.57821 20.2353 14.8353L2.22593 28.1957" stroke="#FEC5B9" stroke-opacity="0.5" stroke-width="4" stroke-miterlimit="1.41421" stroke-linecap="round"/>
<path d="M252 71.5447L231.284 56.1444C223.394 50.2793 212.386 51.0754 205.389 58.0173L204.784 58.6167C197.225 66.1156 185.009 65.9961 177.638 58.3512V58.3512C171.093 51.5625 160.552 50.602 152.855 56.0932L143.766 62.5781C135.361 68.5744 123.87 67.629 116.594 60.3424V60.3424C109.121 52.8593 97.2443 52.0898 88.8314 58.5436L85.4547 61.1339C75.885 68.4752 62.539 68.2774 53.2309 60.6565L52.8629 60.3551C43.4628 52.6589 30.0176 52.351 20.2353 59.6081L2.22594 72.9685" stroke="#FEC5B9" stroke-opacity="0.5" stroke-width="4" stroke-miterlimit="1.41421" stroke-linecap="round"/>
<path d="M259 113.772L238.284 98.3716C230.394 92.5064 219.386 93.3026 212.389 100.244L211.784 100.844C204.225 108.343 192.009 108.223 184.638 100.578V100.578C178.093 93.7897 167.552 92.8292 159.855 98.3204L150.766 104.805C142.361 110.802 130.87 109.856 123.594 102.57V102.57C116.121 95.0865 104.244 94.317 95.8314 100.771L92.4547 103.361C82.885 110.702 69.539 110.505 60.2309 102.884L59.8629 102.582C50.4628 94.886 37.0176 94.5782 27.2353 101.835L9.22593 115.196" stroke="#FEC5B9" stroke-opacity="0.5" stroke-width="4" stroke-miterlimit="1.41421" stroke-linecap="round"/>
</svg>
